<?xml version="1.0" encoding="utf-8"?>
<!-- Generator: Adobe Illustrator 25.4.1, SVG Export Plug-In . SVG Version: 6.00 Build 0)  -->
<svg version="1.1" id="Capa_1" xmlns="http://www.w3.org/2000/svg" xmlns:xlink="http://www.w3.org/1999/xlink" x="0px" y="0px"
	 viewBox="0 0 300 300" style="enable-background:new 0 0 300 300;" xml:space="preserve">
<style type="text/css">
	.st0{fill:#E8E8E8;}
	.st1{fill:#FEFEFE;}
	.st2{fill:#0390FE;}
</style>
<g>
	<path class="st0" d="M150.1,0.3C232.1,0.3,300,67.8,300,149.6c0,82.8-67.7,150.2-150.9,150.1C67.3,299.6-0.1,231.8,0,149.5
		C0.1,67.7,67.9,0.3,150.1,0.3z"/>
	<path class="st1" d="M148.8,293.2c-78.6-0.1-142.4-65-142.2-144.4C6.7,70.3,71.6,6.6,151.2,6.8c78.6,0.1,142.4,65,142.2,144.4
		C293.3,229.7,228.4,293.4,148.8,293.2z"/>
	<path class="st2" d="M205.8,205.3c-35.4,0-69,0-102.5,0c-2.5,0-5-0.4-8.7-0.7c4.6-13.2,14.6-16.5,25.2-18.9
		c16.8-3.8,18.9-7,12.9-23.3c-4.8-13.2-8.9-26.1-8.6-40.4c0.3-16.5,9.4-27,25.4-27.2c16.7-0.2,26.2,10.5,26.3,27.9
		c0.1,13.7-3.6,26.2-8.2,38.9c-6.4,17.6-4.7,20.2,13.2,24.3C191,188.2,200.6,191.5,205.8,205.3z"/>
</g>
</svg>
